<svg xmlns="http://www.w3.org/2000/svg" viewBox="0 0 519 519" id="Love"><defs><radialGradient id="a" cx="50%" cy="21.931%" r="87.888%" fx="50%" fy="21.931%"><stop offset="0%" stop-color="#2157f2" class="stopColorf25674 svgShape"></stop><stop offset="100%" stop-color="#2d59d8" class="stopColord82d4e svgShape"></stop></radialGradient></defs><g fill="none" fill-rule="evenodd"><circle cx="259.5" cy="259.5" r="259.5" fill="url(#a)"></circle><path fill="#ffffff" d="M258.000119,408 C255.551702,408 253.103524,407.215294 251.051624,405.645881 C191.99909,368.097647 152.694533,335.304181 133.137953,307.265484 L131.441172,304.821634 L130.199526,303.016418 C116.741002,283.359364 101,257.277789 101,231.469043 C101,182.056655 140.74583,142 189.774795,142 C216.923081,142 241.225111,154.281575 257.509135,173.632531 L257.999869,174.221082 C274.28423,154.53094 298.802694,142 326.225205,142 C375.25417,142 415,182.056655 415,231.469043 C415,257.809928 398.603193,284.435009 384.971058,304.224066 L384.558828,304.821634 L382.862047,307.265484 C363.305467,335.304181 324.00091,368.097647 264.948376,405.645881 C262.896476,407.215294 260.448298,408 258.000119,408 Z" class="colorffffff svgShape"></path></g></svg>