<svg xmlns="http://www.w3.org/2000/svg" viewBox="0 0 16 16" id="Pearl"><path d="M8.01 1C5.114.99 2.45 2.62 1.06 5.223a.5.5 0 0 0-.07.285.5.5 0 0 0 .002.023.5.5 0 0 0 .004.037.5.5 0 0 0 .03.11l1.753 4.824H1.564a.5.5 0 0 0-.5.5C1.064 13.2 2.79 15 4.937 15h6.116c2.147 0 3.875-1.8 3.875-3.998a.5.5 0 0 0-.5-.5H13.21l1.754-4.83a.5.5 0 0 0-.02-.422 7.941 7.941 0 0 0-5.23-4.04.5.5 0 0 0-.285-.071.5.5 0 0 0-.041.004A7.643 7.643 0 0 0 8.009 1zm-.002 1c.308 0 .613.02.914.063l-.197 2.851a.5.5 0 0 0 .998.066l.187-2.699a6.79 6.79 0 0 1 1.945.951.5.5 0 0 0-.107.192L11.322 4.8l-.426 1.375a.5.5 0 0 0 .958.295l.423-1.375.375-1.213c.503.476.943 1.029 1.297 1.654l-1.803 4.965h-1.562a2.997 2.997 0 0 0 .16-2.705 3.001 3.001 0 0 0-5.584.224c-.29.838-.182 1.74.246 2.481H3.844L2.039 5.537a7.069 7.069 0 0 1 1.32-1.674l.334 1.13.422 1.425a.5.5 0 1 0 .96-.283l-.423-1.426-.422-1.426a.5.5 0 0 0-.035-.092 6.801 6.801 0 0 1 1.889-.91l.184 2.606a.5.5 0 0 0 .998-.07L7.07 2.061C7.38 2.02 7.691 2 8.008 2zm-.092 5.002a1.998 1.998 0 0 1 1.494 3.412.5.5 0 0 0-.072.088H6.68a1.998 1.998 0 0 1 1.236-3.5zm-5.654 4.5h1.164a.5.5 0 0 0 .07.006h9a.5.5 0 0 0 .063-.006h1.171C13.476 12.898 12.457 14 11.053 14H4.937c-1.404 0-2.421-1.102-2.675-2.498z" color="#000" font-family="sans-serif" font-weight="400" overflow="visible" style="line-height:normal;text-indent:0;text-align:start;text-decoration-line:none;text-decoration-style:solid;text-decoration-color:#000;text-transform:none;block-progression:tb;isolation:auto;mix-blend-mode:normal" fill="#ffffff" class="color000000 svgShape"></path></svg>