<svg xmlns="http://www.w3.org/2000/svg" xmlns:xlink="http://www.w3.org/1999/xlink" viewBox="0 0 48 48" id="Camera"><defs><linearGradient id="a" x1="-.254" x2="55.066" y1="24" y2="24" gradientUnits="userSpaceOnUse"><stop offset="0" stop-color="#3adae9" class="stopColore93e3a svgShape"></stop><stop offset=".35" stop-color="#3cdeed" class="stopColored683c svgShape"></stop><stop offset=".716" stop-color="#16b1bf" class="stopColorf3903f svgShape"></stop><stop offset="1" stop-color="#0ce9fd" class="stopColorfdc70c svgShape"></stop></linearGradient><linearGradient id="b" x1="-.254" x2="55.066" y1="24.5" y2="24.5" xlink:href="#a"></linearGradient><linearGradient id="c" x1="-.254" x2="55.066" y1="26" y2="26" xlink:href="#a"></linearGradient></defs><path fill="url(#a)" d="M24,0A24,24,0,1,0,48,24,24.028,24.028,0,0,0,24,0Zm0,46A22,22,0,1,1,46,24,22.025,22.025,0,0,1,24,46Z"></path><path fill="url(#b)" d="M36,17H30.781l-.621-2.485A2,2,0,0,0,28.219,13H19.781a2,2,0,0,0-1.941,1.515L17.219,17H12a2,2,0,0,0-2,2V35a1,1,0,0,0,1,1H37a1,1,0,0,0,1-1V19A2,2,0,0,0,36,17Zm0,17H12V19h6a1,1,0,0,0,.97-.757L19.781,15h8.438l.811,3.243A1,1,0,0,0,30,19h6Z"></path><path fill="url(#c)" d="M24,19a7,7,0,1,0,7,7A7.008,7.008,0,0,0,24,19Zm0,12a5,5,0,1,1,5-5A5.006,5.006,0,0,1,24,31Z"></path></svg>