<svg xmlns="http://www.w3.org/2000/svg" viewBox="0 0 64 64" id="JobProfile"><path fill="#99a2ad" d="M52.62 0H23.61c-.09 0-.19.01-.26.02h-.03c-.09.01-.17.04-.25.07-.04.01-.07.01-.11.03-.08.03-.15.07-.22.11l-.01.01c-.02.01-.03.02-.05.03l-.09.06-.01.01c-.05.04-.09.07-.12.1l-.06.05V.5L10.38 10.74s-.01 0-.01.01l-.08.07-.03.03c-.09.08-.16.16-.22.23-.11.16-.2.32-.26.5-.06.17-.09.36-.09.55V62.3c0 .94.77 1.7 1.7 1.7h41.24c.94 0 1.7-.77 1.7-1.7V1.7A1.72 1.72 0 0 0 52.62 0zm-1.7 60.59H13.08V13.81h10.53c.94 0 1.7-.76 1.7-1.7v-8.7h25.6v57.18z" class="color2b4a54 svgShape"></path><path fill="#99a2ad" d="M18.26 48.47c0 .68.55 1.23 1.23 1.23H44.5a1.23 1.23 0 1 0 0-2.46H19.49c-.67 0-1.23.55-1.23 1.23zm26.25 4.77H19.49a1.23 1.23 0 1 0 0 2.46H44.5c.68 0 1.23-.55 1.23-1.23.01-.68-.54-1.23-1.22-1.23zm-21.58-9.52h18.14c.52 0 .95-.43.95-.95V36.9c0-3.79-2.99-6.84-6.82-6.94a.888.888 0 0 0-.8.4l-2.54 3.61-2.23-3.56a.94.94 0 0 0-.83-.44c-3.82.1-6.82 3.15-6.82 6.94v5.87c0 .51.43.94.95.94zM32 29.48c2.86 0 5.19-2.33 5.19-5.19 0-2.86-2.33-5.19-5.19-5.19-2.86 0-5.19 2.33-5.19 5.19 0 2.86 2.33 5.19 5.19 5.19zM30.42 7.92h12.31a1.23 1.23 0 1 0 0-2.46H30.42a1.23 1.23 0 1 0 0 2.46zm12.45 2.33H30.56a1.23 1.23 0 1 0 0 2.46h12.31a1.23 1.23 0 1 0 0-2.46z" class="color2b4a54 svgShape"></path></svg>